<?xml version="1.0" standalone="no"?>
<!DOCTYPE svg PUBLIC "-//W3C//DTD SVG 20010904//EN"
 "http://www.w3.org/TR/2001/REC-SVG-20010904/DTD/svg10.dtd">
<svg version="1.0" xmlns="http://www.w3.org/2000/svg"
 width="747.000000pt" height="688.000000pt" viewBox="0 0 747.000000 688.000000"
 preserveAspectRatio="xMidYMid meet">

<g transform="translate(0.000000,688.000000) scale(0.100000,-0.100000)"
fill="#000000" stroke="none">
<path d="M1156 6709 c-101 -15 -207 -48 -311 -98 -327 -156 -549 -468 -594
-836 -8 -63 -11 -756 -11 -2322 0 -1935 2 -2247 15 -2347 58 -443 338 -767
763 -884 l97 -27 2568 -3 c2839 -3 2671 -6 2868 61 379 130 628 462 670 892 7
75 9 840 7 2375 l-4 2265 -26 107 c-52 210 -145 375 -290 514 -161 154 -302
228 -553 291 -65 16 -233 17 -2605 19 -1400 1 -2561 -2 -2594 -7z m2502 -1340
c531 -58 963 -337 1167 -754 54 -109 90 -224 101 -320 l6 -50 -343 -50 c-189
-27 -354 -49 -367 -50 -20 0 -26 10 -48 73 -86 255 -252 413 -509 484 -110 30
-412 33 -520 4 -434 -115 -688 -524 -712 -1146 -10 -269 22 -510 96 -720 91
-258 241 -436 456 -540 117 -56 224 -80 391 -87 287 -12 502 54 664 204 142
131 222 314 246 561 l7 72 -402 0 -401 0 0 285 0 285 756 0 756 0 -5 -392 c-4
-343 -8 -408 -26 -508 -58 -313 -189 -564 -402 -765 -222 -209 -488 -332 -827
-381 -129 -19 -485 -22 -617 -5 -302 39 -547 127 -772 276 -318 212 -548 549
-649 952 -46 181 -63 321 -71 553 -20 648 149 1170 497 1534 181 189 366 307
616 396 99 35 270 76 370 89 100 12 428 13 542 0z m1839 -1245 c-3 -3 -12 -4
-19 -1 -8 3 -5 6 6 6 11 1 17 -2 13 -5z m-66 -1601 c13 -16 12 -17 -3 -4 -10
7 -18 15 -18 17 0 8 8 3 21 -13z"/>
</g>
</svg>
